# xmcd CD database file
#
# Track frame offsets:
#	150
#	20682
#	36077
#	53057
#	79732
#	105170
#	127545
#	137212
#	170527
#	185062
#	205660
#	230975
#	251472
#	270285
#	293547
#	311605
#	330960
#
# Disc length: 4427 seconds
#
# Revision: 1
# Processed by: cddbd v1.5.2PL0 Copyright (c) Steve Scherf et al.
# Submitted via: CDex 1.70beta2
#
DISCID=dd114911
DTITLE=Larry McMurtry - Folly and Glory Pt 2
DYEAR=2004
DGENRE=Speech
TTITLE0=02-01
TTITLE1=02-02
TTITLE2=02-03
TTITLE3=02-04
TTITLE4=02-05
TTITLE5=02-06
TTITLE6=02-07
TTITLE7=02-08
TTITLE8=02-09
TTITLE9=02-10
TTITLE10=02-11
TTITLE11=02-12
TTITLE12=02-13
TTITLE13=02-14
TTITLE14=02-15
TTITLE15=02-16
TTITLE16=02-17
EXTD=Folly and Glory by Larry McMurtry 7 CDs 2004\n4th Berrybender Narrative Simon and Schuster\nread by Alfred Molina - Booty - country YEAR: 2004
EXTT0=
EXTT1=
EXTT2=
EXTT3=
EXTT4=
EXTT5=
EXTT6=
EXTT7=
EXTT8=
EXTT9=
EXTT10=
EXTT11=
EXTT12=
EXTT13=
EXTT14=
EXTT15=
EXTT16=
PLAYORDER=
